<?xml version="1.0" encoding="utf-8"?>
<!-- Generator: Adobe Illustrator 16.0.0, SVG Export Plug-In . SVG Version: 6.00 Build 0)  -->
<!DOCTYPE svg PUBLIC "-//W3C//DTD SVG 1.1//EN" "http://www.w3.org/Graphics/SVG/1.1/DTD/svg11.dtd">
<svg version="1.1" id="Capa_1" xmlns="http://www.w3.org/2000/svg" xmlns:xlink="http://www.w3.org/1999/xlink" x="0px" y="0px"
	 width="512px" height="512px" viewBox="0 0 512 512" enable-background="new 0 0 512 512" xml:space="preserve">
<g>
	<defs>
		<rect id="SVGID_1_" x="-172.5" y="-168.5" width="853" height="853"/>
	</defs>
	<clipPath id="SVGID_2_">
		<use xlink:href="#SVGID_1_"  overflow="visible"/>
	</clipPath>
	<path clip-path="url(#SVGID_2_)" fill="#268CE6" d="M256.823,123.952c-32.828,0-59.534-26.707-59.534-59.535
		c0-32.825,26.707-59.531,59.534-59.531c32.82,0,59.527,26.706,59.527,59.531C316.351,97.246,289.644,123.952,256.823,123.952
		 M256.823,20.789c-24.057,0-43.632,19.575-43.632,43.628c0,24.049,19.575,43.633,43.632,43.633
		c24.058,0,43.633-19.583,43.633-43.633C300.456,40.364,280.881,20.789,256.823,20.789"/>
	<path clip-path="url(#SVGID_2_)" fill="#268CE6" d="M256.823,509.543c-32.828,0-59.534-26.706-59.534-59.534
		c0-32.82,26.707-59.527,59.534-59.527c32.82,0,59.527,26.707,59.527,59.527C316.351,482.837,289.644,509.543,256.823,509.543
		 M256.823,406.385c-24.057,0-43.632,19.575-43.632,43.624c0,24.058,19.575,43.633,43.632,43.633
		c24.058,0,43.633-19.575,43.633-43.633C300.456,425.96,280.881,406.385,256.823,406.385"/>
	<path clip-path="url(#SVGID_2_)" fill="#268CE6" d="M449.616,316.744c-32.821,0-59.52-26.706-59.52-59.527
		c0-32.82,26.698-59.526,59.52-59.526c32.819,0,59.534,26.707,59.534,59.526C509.15,290.038,482.436,316.744,449.616,316.744
		 M449.616,213.584c-24.059,0-43.633,19.575-43.633,43.632c0,24.049,19.574,43.633,43.633,43.633
		c24.064,0,43.641-19.584,43.641-43.633C493.257,233.16,473.681,213.584,449.616,213.584"/>
	<path clip-path="url(#SVGID_2_)" fill="#268CE6" d="M64.024,316.744c-32.82,0-59.526-26.706-59.526-59.527
		c0-32.82,26.706-59.526,59.526-59.526s59.527,26.707,59.527,59.526C123.551,290.038,96.844,316.744,64.024,316.744 M64.024,213.584
		c-24.058,0-43.633,19.575-43.633,43.632c0,24.049,19.575,43.633,43.633,43.633c24.057,0,43.633-19.584,43.633-43.633
		C107.657,233.16,88.081,213.584,64.024,213.584"/>
	<path clip-path="url(#SVGID_2_)" fill="#268CE6" d="M143.293,82.219c-31.837,21.058-56.228,50.596-71.988,85.933l1.866,0.408
		l18.759,6.514v-0.558c15.327-31.055,32.854-57.229,59.527-76.487l6.064,11.746l25.689-40.001l-47.498-2.265L143.293,82.219z"/>
	<path clip-path="url(#SVGID_2_)" fill="#268CE6" d="M99.01,353.921l13.904-7.173L72.904,321.06l-2.257,47.489l14.069-7.256
		c21.226,32.42,50.971,57.953,86.65,73.837l0.124,0.151l5.739-14.136v-0.084l0.301-0.475
		C145.109,406.191,118.453,383.143,99.01,353.921"/>
	<path clip-path="url(#SVGID_2_)" fill="#268CE6" d="M423.584,326.564l-0.15,0.392c-14.462,32.097-37.352,58.894-66.407,78.245
		l-7.139-13.853l-25.698,40.001l47.497,2.266l-7.321-14.179c32.171-21.058,57.643-50.563,73.53-85.957l0.158-0.399L423.584,326.564z
		"/>
	<path clip-path="url(#SVGID_2_)" fill="#268CE6" d="M422.552,139.896c-20.41-31.188-48.865-56.045-82.893-72.039l-0.325-0.083
		l-6.515,13.995l-0.192,0.442l0.268,0.108c30.854,14.502,56.71,36.785,75.47,64.907l-13.894,7.164l40.017,25.69l2.242-47.498
		L422.552,139.896z"/>
	<path clip-path="url(#SVGID_2_)" fill="#268CE6" d="M464.61,233.577l3.197,2.924l-5.855,6.389l-3.191-2.932
		c-1.374-1.25-2.772-2.25-4.322-2.899c-1.508-0.633-3.24-0.966-5.339-0.934c-0.858,0.017-1.649,0.133-2.358,0.359
		c-1.799,0.558-3.09,1.808-3.956,3.332c-0.983,1.757-1.426,3.832-1.392,5.773c0.017,0.949,0.158,1.865,0.392,2.648
		c0.517,1.649,1.725,3.715,3.049,5.756h18.693v6.331h-14.596c1.034,1.782,1.742,3.439,1.816,4.965
		c0.166,4.24-3.381,8.488-7.764,12.987h22.466h4.349v8.703h-4.349h-32.829l-3.181-7.296c1.94-2.083,3.407-3.558,4.83-4.991
		c4.082-4.072,7.855-7.846,7.807-9.063c-0.009-0.142-1.334-2.123-2.85-4.382l-0.617-0.924h-7.354v-6.331h3.557
		c-0.542-1.076-0.992-2.149-1.316-3.208c-0.475-1.541-0.74-3.273-0.766-5.072c-0.051-3.357,0.725-7.023,2.473-10.138
		c1.876-3.341,4.815-6.098,8.997-7.38c1.442-0.45,3.032-0.716,4.774-0.734c3.356-0.049,6.229,0.525,8.821,1.617
		C460.353,230.144,462.544,231.677,464.61,233.577"/>
	<path clip-path="url(#SVGID_2_)" fill="#268CE6" d="M264.438,62.81c-1.45-0.634-2.94-1.229-4.447-1.816v-17.54
		c1.49,0.121,2.989,0.375,4.447,0.779c2.257,0.612,4.423,1.573,6.314,2.907l4.965-7.106c-3.391-2.37-7.289-3.923-11.279-4.727
		c-1.482-0.288-2.974-0.475-4.447-0.57v-3.616h-6.332v3.873c-1.532,0.212-3.023,0.546-4.457,0.988
		c-0.683,0.213-1.349,0.454-2.008,0.716c-3.473,1.417-6.438,3.583-8.438,6.448c-1.716,2.439-2.699,5.306-2.699,8.566
		c0,7.327,5.948,11.192,13.145,14.312c1.45,0.633,2.95,1.232,4.457,1.815V85c-1.448-0.282-2.939-0.715-4.457-1.291
		c-2.091-0.824-4.224-1.924-6.332-3.357l-4.863,7.164c3.697,2.516,7.513,4.265,11.195,5.332c1.508,0.441,2.999,0.766,4.457,0.982
		v3.882h6.332v-3.649c1.54-0.117,3.032-0.374,4.447-0.758c1.101-0.292,2.157-0.666,3.148-1.107c3.007-1.341,5.499-3.349,7.264-5.94
		c1.749-2.59,2.741-5.655,2.741-9.138C277.591,69.791,271.652,65.934,264.438,62.81 M253.658,58.503
		c-1.624-0.683-3.14-1.366-4.457-2.074c-2.657-1.442-4.448-2.987-4.448-4.716c0-1.407,0.399-2.61,1.098-3.611
		c0.767-1.099,1.934-2.028,3.35-2.77c0.409-0.205,0.825-0.403,1.258-0.583c0.991-0.4,2.066-0.716,3.198-0.945V58.503z
		 M267.678,81.402c-0.75,1.1-1.866,2.016-3.24,2.691c-0.124,0.066-0.25,0.125-0.391,0.175c-1.185,0.532-2.55,0.891-4.057,1.066
		V70.331c1.623,0.685,3.14,1.367,4.447,2.074c2.657,1.442,4.448,2.982,4.448,4.715C268.886,78.82,268.453,80.253,267.678,81.402"/>
	<polygon clip-path="url(#SVGID_2_)" fill="#268CE6" points="47.139,259.542 59.16,259.542 45.032,230.636 55.377,230.636 
		63.691,248.504 72.67,230.636 83.017,230.636 67.906,259.383 67.906,259.542 79.968,259.542 79.968,265.873 67.906,265.873 
		67.906,268.013 79.968,268.013 79.968,274.343 67.906,274.343 67.906,283.79 59.2,283.79 59.2,274.343 47.139,274.343 
		47.139,268.013 59.2,268.013 59.2,265.873 47.139,265.873 	"/>
	<rect x="154.48" y="202.63" clip-path="url(#SVGID_2_)" fill="#268CE6" width="82.759" height="33.579"/>
	<rect x="154.48" y="244.339" clip-path="url(#SVGID_2_)" fill="#268CE6" width="82.759" height="33.578"/>
	<rect x="244.787" y="202.639" clip-path="url(#SVGID_2_)" fill="#268CE6" width="33.579" height="116.987"/>
	<rect x="283.331" y="202.639" clip-path="url(#SVGID_2_)" fill="#268CE6" width="33.569" height="116.987"/>
	<path clip-path="url(#SVGID_2_)" fill="#268CE6" d="M200.354,286.48h-43.982h-1.625v6.674v5.18
		c0.907,11.204,9.829,19.759,21.017,21.558h5.198h55.978V286.48H200.354z"/>
	<path clip-path="url(#SVGID_2_)" fill="#268CE6" d="M333.603,202.489h-3.874h-7.896v2.157v43.717v71.529h33.411v-90.431v-5.915
		C354.337,212.351,344.948,203.388,333.603,202.489"/>
	<path clip-path="url(#SVGID_2_)" fill="#268CE6" d="M276.715,454.223c-0.933-1.591-2.182-2.84-3.764-3.723
		c-1.1-0.624-2.675-1.208-4.748-1.733c1.925-0.657,3.482-1.482,4.655-2.49c1.166-0.999,2.074-2.149,2.699-3.465
		c0.617-1.301,0.934-2.69,0.934-4.148c0-2.008-0.592-3.84-1.766-5.523c-1.183-1.683-2.866-2.956-5.065-3.857
		c-1.266-0.524-2.849-0.874-4.664-1.091v-7.521h-6.189v7.264h-3.974v-7.264h-6.181v7.264h-13.12v6.114h1.742
		c1.166,0,1.949,0.108,2.366,0.316c0.408,0.208,0.682,0.5,0.865,0.85c0.167,0.358,0.241,1.191,0.241,2.508v24.614
		c0,1.292-0.074,2.126-0.241,2.491c-0.183,0.367-0.457,0.65-0.865,0.858c-0.417,0.19-1.201,0.3-2.366,0.3h-1.742v6.114h13.12v7.256
		h6.172V472.1h3.85c0.04,0,0.084-0.009,0.133-0.009v7.265h6.182v-7.622c1.999-0.258,3.665-0.65,5.015-1.2
		c2.564-1.024,4.573-2.531,5.988-4.506c1.417-1.974,2.124-4.132,2.124-6.472C278.107,457.597,277.648,455.814,276.715,454.223
		 M251.667,435.056h4.849c2.832,0,4.798,0.175,5.89,0.525c1.1,0.35,1.934,0.94,2.523,1.765c0.565,0.817,0.867,1.809,0.867,2.967
		c0,1.117-0.316,2.106-0.917,2.965c-0.616,0.859-1.532,1.492-2.74,1.916c-1.208,0.417-3.09,0.633-5.623,0.633h-4.849V435.056z
		 M265.354,462.336c-0.858,1.101-1.908,1.825-3.148,2.166c-1.225,0.359-2.783,0.533-4.657,0.533h-3.216
		c-1.083,0-1.74-0.058-1.983-0.174c-0.233-0.117-0.417-0.326-0.516-0.608c-0.083-0.241-0.134-1.025-0.167-2.383v-9.563h5.724
		c2.508,0,4.363,0.24,5.589,0.7c1.225,0.457,2.133,1.148,2.749,2.065c0.607,0.898,0.917,2.007,0.917,3.315
		C266.654,459.921,266.212,461.246,265.354,462.336"/>
</g>
</svg>
