<svg xmlns="http://www.w3.org/2000/svg" width="344" height="320" viewBox="0 0 344 320"><g fill="none" fill-rule="evenodd"><path fill="#FFF" d="M43 125.5C43 194.26 98.741 250 167.5 250c68.76 0 124.5-55.74 124.5-124.5C292 56.74 236.26 1 167.5 1 98.741 1 43 56.74 43 125.5"/><path stroke="#167FFC" stroke-width="2" d="M43 125.5C43 194.26 98.741 250 167.5 250c68.76 0 124.5-55.74 124.5-124.5C292 56.74 236.26 1 167.5 1 98.741 1 43 56.74 43 125.5z"/><path fill="#FFF" d="M167.5 250c68.76 0 124.5-55.74 124.5-124.5C292 56.74 236.26 1 167.5 1 98.741 1 43 56.74 43 125.5 43 194.26 98.741 250 167.5 250z"/><path stroke="#167FFC" stroke-width="2" d="M43 125.5C43 194.26 98.741 250 167.5 250c68.76 0 124.5-55.74 124.5-124.5C292 56.74 236.26 1 167.5 1 98.741 1 43 56.74 43 125.5z"/><path stroke="#167FFC" stroke-width="2" d="M75.127 51.817c2.277 2.597 5.603 7.06 9.542 9.091 7.206 3.705 14.756-12.135 22.265-15.907 7.5-3.775 16.987-4.952 24.139-6.785 7.15-1.832 14.301-4.339 18.746-4.211 4.441.128 8.116.19 5.625 4.914-2.492 4.72-23.276 11.235-23.67 18.245-.397 7.01 8.708 9.209 10.484 14.802 1.784 5.59.362 8.661-4.69 8.467-5.056-.19-10.003-6.569-14.17-7.286-9.192-1.584-14.337 11.685-14.826 13.956-.72 3.315.623 6.92 2.966 7.925 3.577 1.527 10.454-4.306 14.31-5.445 7.254-2.151 16.81 10.057 14.593 15.768-1.847 4.763-8.66 1.158-12.627 3.955-3.958 2.8-3.941 8.083-7.536 10.755-8.879 6.596-11.825 3.753-15.527 8.54-8.631 11.165 23.764 17.77 33.68 20.887 1.749.547.08 7.286 2.474 8.73 3.348 2.02 14.413 1.41 16.64 6.314 3.634 7.965-15.582 25.402-19.902 32.277-5.446 8.676-5.301 25.224-6.091 26.432-2.392 3.664-9.848-6.83-10.317-12.395-.596-7.156 2.596-24.354.94-32.282-1.658-7.926-8.746-7.809-10.314-12.63-1.569-4.821 1.359-8.052-.59-12.21-4.102-8.777-28.725-5.632-36.206-34.104-1.576-6.005 2.977-8.53 2.578-14.272-.4-5.739-2.408-14.442-4.92-19.412C70.207 80.96 65.717 77.045 62 75.47m225 53.617c-7.826 2.271-8.473 13.298-13.11 12.756-4.633-.54-4.356-7.919-5.612-10.273-1.256-2.349-2.11-3.722-5.773-4.214-3.658-.492-8.727 6.64-12.403 9.053-3.678 2.412-3.268 3.092-5.693 2.912-2.424-.184-3.79-6.911-8.278-8.603-4.496-1.691-7.954 2.194-6.596 7.445 1.36 5.258 3.854 10.467 7.48 14.807 5.415 6.481-5.254 25.125-8.657 31.253-2.222 3.98-4.404 8.231-7.205 10.255-2.805 2.022-4.574 4.053-8.18.85-3.595-3.199-6-12.634-6.34-16.685-.217-2.545-1.316-5.414-1.96-15.628-.08-1.331 2.298-9.106-4.275-8.461-1.068.1-4.198 1.029-6.227 1.369-2.028.34-4.24 1.037-5.945.682-1.83-.377-7.992-6.228-8.572-7.916-.874-2.52-.905-6.006.108-8.768 1.02-2.763 4.115-4.638 5.66-6.89 1.548-2.257 1.885-4.552 3.45-5.97 1.57-1.414 2.644-.53 5.282-1.095 2.637-.564 6.3-3.69 8.628-2.862 2.326.828 1.95.717 2.535 3.888.585 3.175 5.028 5.823 8.461 4.1 4.216-2.114 5.003-2.738 7.434-3.75 19.034-7.954 2.178-31.978-6.912-22.748-2.728 2.77 6.683 7.328 3.086 12.07-3.215 4.238-12.87-7.698-13.958-7.636-3.91.222-7.844 8.925-11.453 8.925-3.213 0-6.373-4.96-6.373-6.704 0-1.934 2.37-2.814 7.031-5.497 2.696-1.553-4.043-4.724-2.751-5.978 1.298-1.248 9.932-4.306 14.789-5.72 4.853-1.414 6.957.7 10.195-.166 3.174-.846.137-4.547 5.47-9.861 4.428-4.409-3.465-10.467-6.624-10.19-10.294.902-6.741 12.87-12.674 11.538-9.354-2.096-2.132-25.024 13.481-23.933 6.387.448 12.904 9.816 15.269 7.536 2.365-2.28-.335-8.055 1.249-11.42 1.582-3.367 6.863-11.099 8.92-7.723 3.452 5.653-1.969 17.388 2.519 17.791 4.724.422 6.014-7.154 8.172-9.539 1.746-1.927 3.764 1.338 5.945 0 3.208-1.965 4.083-4.582 4.463-7.423"/><path fill="#FFF" d="M57.941 43.925A13.203 13.203 0 0 0 60 36.804C60 29.733 54.544 24 47.81 24c-6.316 0-11.509 5.045-12.128 11.506a22.425 22.425 0 0 0-11.276-3.039C11.48 32.467 1 43.473 1 57.05c0 8.66 4.27 16.273 10.716 20.65a14.848 14.848 0 0 0-.888 5.04c0 7.877 6.08 14.26 13.578 14.26 5.721 0 10.608-3.722 12.606-8.986l.006.004c3.108-14.351 14.116-33.468 14.117-33.47l6.806-10.623"/><path stroke="#167FFC" stroke-width="2" d="M57.941 43.925A13.203 13.203 0 0 0 60 36.804C60 29.733 54.544 24 47.81 24c-6.316 0-11.509 5.045-12.128 11.506a22.425 22.425 0 0 0-11.276-3.039C11.48 32.467 1 43.473 1 57.05c0 8.66 4.27 16.273 10.716 20.65a14.848 14.848 0 0 0-.888 5.04c0 7.877 6.08 14.26 13.578 14.26 5.721 0 10.608-3.722 12.606-8.986l.006.004c3.108-14.351 14.116-33.468 14.117-33.47l6.806-10.623z"/><path fill="#FFF" d="M52.535 198.105a9.911 9.911 0 0 0-3.994-3.924c-4.693-2.517-10.44-.88-12.834 3.66-2.246 4.258-.745 9.554 3.324 12.272a17.157 17.157 0 0 0-6.027 6.521c-4.597 8.713-1.018 19.697 7.993 24.529 5.75 3.085 12.321 2.915 17.52.128.84.94 1.849 1.762 3.028 2.394 5.228 2.803 11.628.978 14.295-4.077 2.035-3.857 1.3-8.477-1.482-11.697l.005-.003c-8.421-7.205-17.197-21.431-17.197-21.432l-4.63-8.37z"/><path stroke="#167FFC" stroke-width="2" d="M52.535 198.105a9.911 9.911 0 0 0-3.994-3.924c-4.693-2.517-10.44-.88-12.834 3.66-2.246 4.258-.745 9.554 3.324 12.272a17.157 17.157 0 0 0-6.027 6.521c-4.597 8.713-1.018 19.697 7.993 24.529 5.75 3.085 12.321 2.915 17.52.128.84.94 1.849 1.762 3.028 2.394 5.228 2.803 11.628.978 14.295-4.077 2.035-3.857 1.3-8.477-1.482-11.697l.005-.003c-8.421-7.205-17.197-21.431-17.197-21.432l-4.63-8.37zM343 179.06c0-7.356-3.712-13.85-9.378-17.755.478-1.537.738-3.168.738-4.861 0-9.082-7.433-16.444-16.602-16.444-9.076 0-14.673 6.92-16.587 16.173-4.321 13.78-13.91 33.198-13.91 33.198l-5.493 10.405A11.314 11.314 0 0 0 280 205.97c.05 6.138 4.907 11.075 10.85 11.029 3.95-.032 7.374-2.263 9.22-5.554a14.387 14.387 0 0 0 8.783 2.983c7.806 0 14.145-6.165 14.36-13.847C334.31 199.563 343 190.318 343 179.06z"/><path fill="#FFF" d="M79 15.5a6.501 6.501 0 0 1-13 0 6.501 6.501 0 0 1 13 0"/><path stroke="#167FFC" stroke-width="2" d="M79 15.5a6.501 6.501 0 0 1-13 0 6.501 6.501 0 0 1 13 0z"/><path fill="#FFF" d="M327 117.5a8.5 8.5 0 0 1-8.5 8.5 8.5 8.5 0 1 1 8.5-8.5"/><path stroke="#167FFC" stroke-width="2" d="M326 116.5a8.5 8.5 0 0 1-8.5 8.5 8.5 8.5 0 1 1 8.5-8.5z"/><path fill="#FFF" d="M149.215 171.947c-3.158-2.161-21.698-12.116-25.264-10.79l-30.55 9.517c-2.898 1.1-3.902 4.552-5.388 10.544-.297 1.137-.669 2.73-.818 3.073-1.672 3.186-16.459 32.087-24.707 62.886-9.808 36.601-6.466 60.534 9.993 71.154 3.792 2.428 9.067 2.01 12.523-1.024l33.92-29.698a22.551 22.551 0 0 1 14.825-5.575h70.186c5.425 0 10.7 1.972 14.824 5.575l33.92 29.698c1.97 1.745 4.46 2.693 7.023 2.693a9.971 9.971 0 0 0 5.573-1.707c15.792-10.847 18.911-34.857 9.215-71.344-7.394-27.84-20.212-54.96-23.965-62.545-.148-.417-.558-1.934-.817-3.034-1.524-6.107-2.526-9.597-5.425-10.696l-30.55-9.554c-3.566-1.327-22.129 8.742-25.213 10.827h-39.305z"/><path fill="#FFF" d="M150.185 179.914c-2.917-1.958-20.044-10.973-23.34-9.772l-28.22 8.618c-2.677.996-3.604 4.123-4.976 9.55-.275 1.03-.619 2.473-.756 2.783-1.544 2.885-15.203 29.06-22.823 56.953-9.061 33.15-5.973 54.824 9.233 64.443 3.5 2.198 8.373 1.82 11.566-.928l31.336-26.898a21.08 21.08 0 0 1 13.693-5.049h64.836c5.01 0 9.884 1.788 13.693 5.05l31.336 26.897A9.889 9.889 0 0 0 252.25 314a9.35 9.35 0 0 0 5.149-1.547c14.586-9.824 17.468-31.567 8.51-64.613-6.829-25.213-18.67-49.775-22.136-56.645-.137-.377-.515-1.752-.756-2.747-1.407-5.53-2.333-8.692-5.01-9.688l-28.221-8.651c-3.296-1.203-20.443 7.916-23.291 9.805h-36.31z"/><path stroke="#167FFC" stroke-width="2" d="M166.829 187.47l-13.37 13.483 13.37 13.483 13.37-13.483z"/><path fill="#167FFC" d="M166.829 192.591v16.72l8.292-8.36-8.292-8.36zm2.544 6.176l2.164 2.184-2.164 2.183v-4.367z"/><path stroke="#167FFC" stroke-width="2" d="M150.185 179.914c-2.917-1.958-20.044-10.973-23.34-9.772l-28.22 8.618c-2.677.996-3.604 4.123-4.976 9.55-.275 1.03-.619 2.473-.756 2.783-1.544 2.885-15.203 29.06-22.823 56.953-9.061 33.15-5.973 54.824 9.233 64.443 3.5 2.198 8.373 1.82 11.566-.928l31.336-26.898a21.08 21.08 0 0 1 13.693-5.049h64.836c5.01 0 9.884 1.788 13.693 5.05l31.336 26.897A9.889 9.889 0 0 0 252.25 314a9.35 9.35 0 0 0 5.149-1.547c14.586-9.824 17.468-31.567 8.51-64.613-6.829-25.213-18.67-49.775-22.136-56.645-.137-.377-.515-1.752-.756-2.747-1.407-5.53-2.333-8.692-5.01-9.688l-28.221-8.651c-3.296-1.203-20.443 7.916-23.291 9.805h-36.31z"/><path stroke="#167FFC" stroke-width="2" d="M188 259c-7.15 0-13-5.85-13-13s5.85-13 13-13 13 5.85 13 13-5.808 13-13 13zm-70-37c-7.15 0-13-5.85-13-13s5.85-13 13-13 13 5.85 13 13-5.808 13-13 13z"/><path stroke="#167FFC" stroke-width="2" d="M188 253c-4.4 0-8-3.6-8-8s3.6-8 8-8 8 3.6 8 8-3.574 8-8 8zm-70-37c-4.4 0-8-3.6-8-8s3.6-8 8-8 8 3.6 8 8-3.574 8-8 8zm84.5-2c-3.025 0-5.5-2.475-5.5-5.5 0-3.024 2.475-5.5 5.5-5.5s5.5 2.476 5.5 5.5c0 3.025-2.457 5.5-5.5 5.5zm24 0c-3.025 0-5.5-2.475-5.5-5.5 0-3.024 2.475-5.5 5.5-5.5s5.5 2.476 5.5 5.5c0 3.025-2.457 5.5-5.5 5.5zm-12-12c-3.025 0-5.5-2.475-5.5-5.5s2.475-5.5 5.5-5.5 5.5 2.475 5.5 5.5-2.457 5.5-5.5 5.5zm0 24c-3.025 0-5.5-2.475-5.5-5.5s2.475-5.5 5.5-5.5 5.5 2.475 5.5 5.5-2.457 5.5-5.5 5.5z"/><path stroke="#167FFC" stroke-linejoin="round" stroke-width="2" d="M156 248.273h-8.727V257h-6.546v-8.727H132v-6.546h8.727V233h6.546v8.727H156z"/><path stroke="#167FFC" stroke-width="2" d="M77.055 312c-1.136-22.732 15.57-45.177 27.361-50.055 11.792-4.88 17.688 10.734 37.342 10.734H168"/><path stroke="#167FFC" stroke-width="2" d="M256.945 312c1.13-22.732-15.466-45.177-27.18-50.055-11.715-4.88-17.574 10.734-37.096 10.734H167M130 13l12 6 15-6 18.75 4.5L187 13l12.75 6 9.25-5"/></g></svg>