<svg height="496pt" viewBox="0 0 496 496" width="496pt" xmlns="http://www.w3.org/2000/svg"><g fill="#f0bc5e"><path d="m50.28125 384h109.71875v-32h-128.351562c5.382812 11.183594 11.640624 21.863281 18.632812 32zm0 0"/><path d="m320 448h-144v29c22.726562 7.136719 46.910156 11 72 11s49.273438-3.863281 72-11zm0 0"/><path d="m160 400h-97.71875c9.535156 11.632812 20.152344 22.34375 31.671875 32h66.046875zm0 0"/><path d="m160 448h-44.648438c13.929688 9.257812 28.878907 17.054688 44.648438 23.28125zm0 0"/><path d="m336 432h66.039062c11.527344-9.65625 22.144532-20.367188 31.671876-32h-97.710938zm0 0"/><path d="m336 384h109.71875c6.984375-10.136719 13.25-20.816406 18.632812-32h-128.351562zm0 0"/><path d="m336 471.28125c15.761719-6.21875 30.71875-14.023438 44.648438-23.28125h-44.648438zm0 0"/><path d="m176 304h144v32h-144zm0 0"/><path d="m176 352h144v32h-144zm0 0"/><path d="m176 400h144v32h-144zm0 0"/></g><path d="m288 320h16v16h-16zm0 0"/><path d="m256 320h16v16h-16zm0 0"/><path d="m224 320h16v16h-16zm0 0"/><path d="m192 320h16v16h-16zm0 0"/><path d="m288 368h16v16h-16zm0 0"/><path d="m256 368h16v16h-16zm0 0"/><path d="m224 368h16v16h-16zm0 0"/><path d="m192 368h16v16h-16zm0 0"/><path d="m288 416h16v16h-16zm0 0"/><path d="m256 416h16v16h-16zm0 0"/><path d="m224 416h16v16h-16zm0 0"/><path d="m192 416h16v16h-16zm0 0"/><path d="m416 368h16v16h-16zm0 0"/><path d="m384 368h16v16h-16zm0 0"/><path d="m352 368h16v16h-16zm0 0"/><path d="m352 416h16v16h-16zm0 0"/><path d="m128 368h16v16h-16zm0 0"/><path d="m96 368h16v16h-16zm0 0"/><path d="m64 368h16v16h-16zm0 0"/><path d="m128 416h16v16h-16zm0 0"/><path d="m248 0c-3.609375 0-7.191406.0976562-10.769531.246094v.058594c-1.742188-.105469-3.46875-.304688-5.230469-.304688-7.886719 0-15.574219 1.070312-22.929688 3.070312-121.160156 19.097657-209.070312 122.058594-209.070312 244.929688 0 136.742188 111.246094 248 248 248s248-111.257812 248-248-111.246094-248-248-248zm94.0625 36c-6.886719-2.542969-14.300781-4-22.0625-4-6.160156 0-12.214844.878906-18.089844 2.617188-4.398437-5.761719-9.460937-10.847657-14.988281-15.289063 19.285156 3.273437 37.765625 8.9375 55.140625 16.671875zm57.9375 387.046875v-7.046875h-16v16h5.070312c-24.878906 19.121094-53.71875 33.320312-85.070312 41.128906v-9.128906h-16v12.480469c-5.28125.917969-10.601562 1.726562-16 2.28125v-14.761719h-16v15.800781c-2.664062.085938-5.320312.199219-8 .199219s-5.335938-.113281-8-.199219v-15.800781h-16v14.761719c-5.398438-.5625-10.71875-1.363281-16-2.28125v-12.480469h-16v9.128906c-31.351562-7.800781-60.191406-22-85.070312-41.128906h5.070312v-16h-16v7.046875c-48.960938-42.566406-80-105.230469-80-175.046875 0-98.433594 60.328125-183.160156 148.832031-216.710938-7.984375 9.414063-14.039062 20.550782-17.503906 32.878907-1.113281-.046875-2.207031-.167969-3.328125-.167969-39.703125 0-72 32.304688-72 72s32.296875 72 72 72h32v-16h-32c-30.871094 0-56-25.121094-56-56s25.128906-56 56-56 56 25.121094 56 56h16c0-33.03125-22.382812-60.871094-52.769531-69.3125 9.21875-29.742188 37.082031-50.6875 68.769531-50.6875 24.296875 0 46.800781 12.167969 60.183594 32.550781l3.617187 5.503907 6.09375-2.488282c5.792969-2.367187 11.890625-3.566406 18.105469-3.566406 26.472656 0 48 21.527344 48 48 0 .816406-.152344 1.601562-.191406 2.40625-23 6.960938-39.808594 28.347656-39.808594 53.59375h16c0-22.054688 17.945312-40 40-40s40 17.945312 40 40-17.945312 40-40 40h-64v16h64c30.871094 0 56-25.121094 56-56s-25.128906-56-56-56c0-23.390625-12.65625-43.839844-31.449219-55 75.527344 38.304688 127.449219 116.679688 127.449219 207 0 69.816406-31.039062 132.480469-80 175.046875zm0 0"/><path d="m296 120c0-13.230469-10.769531-24-24-24-4.414062 0-8-3.59375-8-8s3.585938-8 8-8 8 3.59375 8 8h16c0-10.414062-6.710938-19.214844-16-22.527344v-17.472656h-16v17.472656c-9.289062 3.3125-16 12.113282-16 22.527344 0 13.230469 10.769531 24 24 24 4.414062 0 8 3.59375 8 8s-3.585938 8-8 8-8-3.59375-8-8h-16c0 10.414062 6.710938 19.214844 16 22.527344v17.472656h16v-17.472656c9.289062-3.3125 16-12.113282 16-22.527344zm0 0"/><path d="m240 232h16v72h-16zm0 0"/><path d="m288 232h-40v-8c0-30.871094 25.128906-56 56-56h40v8c0 30.871094-25.128906 56-56 56zm0 0" fill="#f0bc5e"/><path d="m248 232h-40c-30.871094 0-56-25.128906-56-56v-8h40c30.871094 0 56 25.128906 56 56zm0 0" fill="#f0bc5e"/></svg>