<?xml version="1.0" encoding="utf-8"?>
<!-- Generator: Adobe Illustrator 23.0.4, SVG Export Plug-In . SVG Version: 6.00 Build 0)  -->
<svg version="1.1" id="Layer_1" xmlns="http://www.w3.org/2000/svg" xmlns:xlink="http://www.w3.org/1999/xlink" x="0px" y="0px"
	 viewBox="0 0 5120 668" style="enable-background:new 0 0 5120 668;" xml:space="preserve">
<style type="text/css">
	.st0{opacity:0.09;fill:#FFFFFF;}
	.st1{opacity:0.08;fill:#FFFFFF;}
	.st2{fill:#283043;}
</style>
<path class="st0" d="M0,668c0-71.19,0-142.38,0-213.57c16.25-24.69,39.11-56.89,69.27-92.27c73.47-86.2,146.91-140.47,187.34-167.77
	c47.78-32.25,152.8-96.6,301.98-132.82c79.07-19.2,137.82-22.54,208.31-26.56c52.25-2.98,208.2-9.43,427.8,27.96
	c24.25,4.13,123.68,27.51,321.55,74.1c235.14,55.36,241.18,57.33,293.59,68.5c92.3,19.67,207.4,43.98,360.7,65.71
	c78.2,11.08,194.5,27.27,349.45,34.95c36.41,1.8,100.8,4.9,183.21,4.19c140.43-1.2,242.35-12.65,369.09-26.56
	c228.37-25.07,342.56-37.61,402.64-43.34c147.94-14.11,330.55-31.11,560.62-32.16c210.52-0.96,315.78-1.43,459.96,25.16
	c53.17,9.81,226.47,44.32,436.19,137.01c77.54,34.27,141.18,68.15,188.29,95.07c0,67.46,0,134.92,0,202.39
	C3413.33,668,1706.67,668,0,668z"/>
<path class="st1" d="M0,668c0-105.21,0-210.42,0-315.63c105.44-31.82,243.64-69.79,407.6-104.85
	c115.58-24.72,270.18-57.3,478.14-78.29c234.09-23.62,417.26-20.59,496.31-18.17c143.17,4.38,251.56,16.9,468.35,41.94
	c277.76,32.09,271.24,41.5,444.58,57.32c171.01,15.61,336.72,29.97,555.03,12.58c73.58-5.86,232.04-21.61,427.8-68.5
	c128.58-30.8,132.01-41.2,274.02-78.29c107.3-28.02,281.19-68.01,492.12-92.27c104.84-12.06,272.67-30.66,490.72-20.97
	c150.69,6.69,352.3,28.09,585.34,89.48c0,191.89,0,383.78,0,575.67C3413.33,668,1706.67,668,0,668z"/>
<path class="st2" d="M0,668c0-77.71,0-155.43,0-233.14c27.11-5.07,65.87-10.58,112.61-11.18c60.42-0.78,106.17,7,144,13.98
	c155.84,28.77,284.36,63.89,321.55,74.1c128.99,35.41,115.9,36.59,185.94,53.13c35.91,8.48,158.76,36.36,324.35,47.53
	c104.65,7.06,183.88,4.58,236.27,2.8c81.32-2.77,164.93-5.62,272.62-25.17c28.04-5.09,75.55-16.44,170.56-39.15
	c108.13-25.84,161.69-39.67,199.92-48.93c54.15-13.12,203.34-48.76,391.46-68.5c149.81-15.73,273.72-16.07,353.71-13.98
	c166.96,4.36,296.26,23.31,335.53,29.36c96.93,14.92,109.95,22.74,197.13,33.55c34.38,4.26,140.32,16.44,278.21,13.98
	c186.89-3.34,329.05-32.06,404.04-47.53c69.34-14.3,128.36-29.76,206.91-50.33c166-43.47,169.01-51.74,241.86-64.31
	c115.55-19.93,209.87-16.69,278.21-13.98c79.19,3.14,137.93,11.43,204.12,20.97c106.64,15.36,195.49,34.41,260.99,50.33
	c0,92.16,0,184.32,0,276.48C3413.33,668,1706.67,668,0,668z"/>
</svg>
